<?xml version="1.0" encoding="UTF-8" standalone="no"?>
<svg
   xmlns:dc="http://purl.org/dc/elements/1.1/"
   xmlns:cc="http://creativecommons.org/ns#"
   xmlns:rdf="http://www.w3.org/1999/02/22-rdf-syntax-ns#"
   xmlns:svg="http://www.w3.org/2000/svg"
   xmlns="http://www.w3.org/2000/svg"
   id="svg5307"
   version="1.1"
   viewBox="0 0 423.33332 84.666663"
   height="320"
   width="1600">
  <defs
     id="defs5301" />
  <metadata
     id="metadata5304">
    <rdf:RDF>
      <cc:Work
         rdf:about="">
        <dc:format>image/svg+xml</dc:format>
        <dc:type
           rdf:resource="http://purl.org/dc/dcmitype/StillImage" />
        <dc:title></dc:title>
      </cc:Work>
    </rdf:RDF>
  </metadata>
  <g
     transform="translate(235.3271,-106.47633)"
     id="layer1">
    <g
       id="text864"
       style="font-style:normal;font-weight:normal;font-size:53.25419998px;line-height:1.25;font-family:sans-serif;letter-spacing:0px;word-spacing:0px;fill:#2196f3;fill-opacity:1;stroke:none;stroke-width:0.62407267"
       aria-label="MaterialClicker">
      <path
         id="path5887"
         style="font-style:normal;font-variant:normal;font-weight:300;font-stretch:normal;font-family:'Work Sans';-inkscape-font-specification:'Work Sans Light';stroke-width:0.62407267"
         d="m -95.712139,166.49295 h -2.556201 v -26.20107 l 0.319525,-6.3905 h -0.05325 l -12.834261,32.59157 h -2.44969 l -12.83427,-32.59157 h -0.0533 l 0.31952,6.3905 v 26.20107 h -2.5562 v -35.14777 h 3.99407 l 10.59758,26.6271 1.75739,5.37867 h 0.0533 l 1.70413,-5.32542 10.597586,-26.68035 h 3.994065 z" />
      <path
         id="path5889"
         style="font-style:normal;font-variant:normal;font-weight:300;font-stretch:normal;font-family:'Work Sans';-inkscape-font-specification:'Work Sans Light';stroke-width:0.62407267"
         d="m -68.425186,164.73556 q 1.331355,0 2.076914,-0.37278 l -0.159763,2.13017 q -0.958575,0.53254 -2.609455,0.53254 -1.863897,0 -3.03549,-1.01183 -1.171592,-1.01183 -1.331355,-3.51477 -1.224846,2.13016 -3.940811,3.35501 -2.715964,1.17159 -5.698199,1.17159 -3.940811,0 -6.33725,-1.75739 -2.343185,-1.75738 -2.343185,-5.00589 0,-6.17749 10.118298,-7.98813 l 8.147893,-1.43786 v -2.34319 q 0,-3.19525 -1.917151,-5.00589 -1.863897,-1.81065 -5.32542,-1.81065 -6.33725,0 -8.520672,5.64495 l -2.02366,-1.49112 q 1.171593,-3.142 3.887557,-4.79288 2.715964,-1.70413 6.656775,-1.70413 4.633115,0 7.242571,2.28993 2.66271,2.23668 2.66271,6.55027 v 13.73958 q 0,2.82247 2.449693,2.82247 z m -14.431888,-0.0532 q 2.236676,0 4.366844,-0.74556 2.130168,-0.79881 3.514778,-2.28993 1.437863,-1.54437 1.437863,-3.67454 v -4.95264 l -7.295825,1.33135 q -4.313591,0.79882 -6.283996,2.23668 -1.970405,1.43786 -1.970405,3.67454 0,2.13017 1.65088,3.30176 1.65088,1.11834 4.579861,1.11834 z" />
      <path
         id="path5891"
         style="font-style:normal;font-variant:normal;font-weight:300;font-stretch:normal;font-family:'Work Sans';-inkscape-font-specification:'Work Sans Light';stroke-width:0.62407267"
         d="m -51.153354,164.78882 q -1.065084,1.06508 -2.609456,1.65088 -1.544372,0.58579 -3.408269,0.58579 -3.248506,0 -5.112403,-1.75739 -1.810643,-1.81064 -1.810643,-5.43192 v -17.6804 h -5.32542 v -2.28993 h 5.32542 v -6.65677 l 2.66271,-0.74556 v 7.40233 h 10.01179 v 2.28993 h -10.01179 v 17.30762 q 0,2.50294 1.171593,3.8343 1.224846,1.2781 3.514777,1.2781 2.66271,0 4.633115,-1.97041 z" />
      <path
         id="path5893"
         style="font-style:normal;font-variant:normal;font-weight:300;font-stretch:normal;font-family:'Work Sans';-inkscape-font-specification:'Work Sans Light';stroke-width:0.62407267"
         d="m -27.724839,152.54035 q 0,0.90532 -0.106508,1.75739 h -21.141918 q 0.266271,4.89939 2.875727,7.6686 2.66271,2.71597 7.082809,2.71597 3.141998,0 5.378674,-1.2781 2.289931,-1.2781 3.30176,-3.62129 l 2.236677,1.17159 q -1.491118,2.92898 -4.260336,4.52661 -2.769219,1.54437 -6.656775,1.54437 -5.911216,0 -9.266231,-3.67454 -3.30176,-3.67454 -3.30176,-10.17155 0,-6.49701 3.195252,-10.17155 3.248506,-3.67454 9.053214,-3.67454 5.431928,0 8.520672,3.62128 3.088743,3.62129 3.088743,9.58576 z m -11.609415,-10.86386 q -4.313591,0 -6.816538,2.71597 -2.502947,2.66271 -2.822473,7.50884 h 18.745479 q -0.266271,-4.79288 -2.66271,-7.50884 -2.343185,-2.71597 -6.443758,-2.71597 z" />
      <path
         id="path5895"
         style="font-style:normal;font-variant:normal;font-weight:300;font-stretch:normal;font-family:'Work Sans';-inkscape-font-specification:'Work Sans Light';stroke-width:0.62407267"
         d="m -13.049147,139.33331 q 2.130168,0 3.3550147,0.90532 l -0.6923047,2.50295 q -1.224847,-0.95858 -3.408269,-0.95858 -2.023659,0 -3.834302,1.2781 -1.757389,1.22485 -2.875727,3.51478 -1.065084,2.23668 -1.065084,5.00589 v 14.91118 h -2.66271 v -26.6271 h 2.236676 l 0.319526,5.43193 q 1.118338,-2.82247 3.30176,-4.36685 2.236676,-1.59762 5.32542,-1.59762 z" />
      <path
         id="path5897"
         style="font-style:normal;font-variant:normal;font-weight:300;font-stretch:normal;font-family:'Work Sans';-inkscape-font-specification:'Work Sans Light';stroke-width:0.62407267"
         d="m -6.8242315,134.70019 q -1.0118298,0 -1.6508802,-0.58579 -0.5857962,-0.63905 -0.5857962,-1.65088 0,-1.01183 0.5857962,-1.59763 0.6390504,-0.63905 1.6508802,-0.63905 1.0118298,0 1.597626,0.63905 0.6390504,0.5858 0.6390504,1.59763 0,1.01183 -0.6390504,1.65088 -0.5857962,0.58579 -1.597626,0.58579 z m 1.331355,31.79276 h -2.66271 v -26.6271 h 2.66271 z" />
      <path
         id="path5899"
         style="font-style:normal;font-variant:normal;font-weight:300;font-stretch:normal;font-family:'Work Sans';-inkscape-font-specification:'Work Sans Light';stroke-width:0.62407267"
         d="m 21.320603,164.73556 q 1.331355,0 2.076914,-0.37278 l -0.159763,2.13017 q -0.958576,0.53254 -2.609456,0.53254 -1.863897,0 -3.035489,-1.01183 -1.171593,-1.01183 -1.331355,-3.51477 -1.224847,2.13016 -3.940811,3.35501 -2.7159643,1.17159 -5.6981995,1.17159 -3.9408108,0 -6.33724977,-1.75739 -2.34318483,-1.75738 -2.34318483,-5.00589 0,-6.17749 10.118298,-7.98813 L 16.2082,150.83622 v -2.34319 q 0,-3.19525 -1.917152,-5.00589 -1.863897,-1.81065 -5.3254197,-1.81065 -6.3372498,0 -8.52067197,5.64495 l -2.02365963,-1.49112 q 1.17159243,-3.142 3.8875566,-4.79288 2.7159642,-1.70413 6.656775,-1.70413 4.6331157,0 7.2425717,2.28993 2.66271,2.23668 2.66271,6.55027 v 13.73958 q 0,2.82247 2.449693,2.82247 z m -14.4318885,-0.0532 q 2.2366764,0 4.3668445,-0.74556 2.130168,-0.79881 3.514777,-2.28993 1.437864,-1.54437 1.437864,-3.67454 v -4.95264 l -7.2958259,1.33135 q -4.3135902,0.79882 -6.2839956,2.23668 -1.97040537,1.43786 -1.97040537,3.67454 0,2.13017 1.65088017,3.30176 1.6508802,1.11834 4.5798612,1.11834 z" />
      <path
         id="path5901"
         style="font-style:normal;font-variant:normal;font-weight:300;font-stretch:normal;font-family:'Work Sans';-inkscape-font-specification:'Work Sans Light';stroke-width:0.62407267"
         d="m 27.176072,160.04919 q 0,2.4497 0.745559,3.46153 0.798813,1.01183 2.609456,1.01183 1.065084,0 1.810643,-0.15977 0.745559,-0.15976 1.704134,-0.58579 l -0.372779,2.5562 q -1.491118,0.6923 -3.514777,0.6923 -2.875727,0 -4.260336,-1.59762 -1.38461,-1.65088 -1.38461,-5.11241 v -32.69808 h 2.66271 z" />
      <path
         id="path5903"
         style="font-style:normal;font-variant:normal;font-weight:600;font-stretch:normal;font-family:'Work Sans';-inkscape-font-specification:'Work Sans Semi-Bold';stroke-width:0.62407267"
         d="m 65.115521,156.80069 q -1.544372,5.05915 -5.485183,7.6686 -3.94081,2.5562 -9.425993,2.5562 -5.165657,0 -8.99996,-2.18342 -3.834302,-2.18342 -5.911216,-6.23074 -2.02366,-4.10057 -2.02366,-9.69227 0,-5.59169 2.02366,-9.63901 2.076914,-4.10057 5.857962,-6.28399 3.834302,-2.18342 8.946706,-2.18342 5.485182,0 9.26623,2.28993 3.834303,2.28993 5.272166,6.81653 l -6.656775,2.82248 q -0.852067,-3.142 -2.66271,-4.52661 -1.810643,-1.38461 -4.899386,-1.38461 -4.473353,0 -7.029555,3.142 -2.502947,3.142 -2.502947,8.9467 0,5.80471 2.449693,8.94671 2.449693,3.142 6.923046,3.142 6.443758,0 8.094639,-6.23074 z" />
      <path
         id="path5905"
         style="font-style:normal;font-variant:normal;font-weight:600;font-stretch:normal;font-family:'Work Sans';-inkscape-font-specification:'Work Sans Semi-Bold';stroke-width:0.62407267"
         d="m 73.773497,158.02553 q 0,1.91715 0.532542,2.66271 0.585797,0.74556 2.076914,0.74556 0.905322,0 1.544372,-0.10651 0.692305,-0.15976 1.597626,-0.47928 l -0.63905,5.05914 q -0.852068,0.53255 -2.236677,0.79882 -1.384609,0.31952 -2.715964,0.31952 -3.887557,0 -5.698199,-1.86389 -1.757389,-1.91716 -1.757389,-6.07098 v -30.88744 h 7.295825 z" />
      <path
         id="path5907"
         style="font-style:normal;font-variant:normal;font-weight:600;font-stretch:normal;font-family:'Work Sans';-inkscape-font-specification:'Work Sans Semi-Bold';stroke-width:0.62407267"
         d="m 83.11129,136.03155 q -4.526607,0 -4.526607,-3.88756 0,-3.94081 4.526607,-3.94081 4.526607,0 4.526607,3.94081 0,3.88756 -4.526607,3.88756 z m 3.621285,30.4614 H 79.43675 v -26.6271 h 7.295825 z" />
      <path
         id="path5909"
         style="font-style:normal;font-variant:normal;font-weight:600;font-stretch:normal;font-family:'Work Sans';-inkscape-font-specification:'Work Sans Semi-Bold';stroke-width:0.62407267"
         d="m 102.50829,139.33331 q 5.27217,0 8.20115,2.13017 2.92898,2.13016 3.99406,5.6982 l -6.81654,2.44969 q -0.95857,-4.84613 -5.16565,-4.84613 -3.142002,0 -4.846136,2.18342 -1.65088,2.13017 -1.65088,6.28399 0,4.15383 1.704134,6.284 1.704134,2.07691 4.739622,2.07691 4.68637,0 5.53844,-4.73962 l 6.60352,2.13017 q -0.85207,3.67454 -3.99407,5.85796 -3.08874,2.18342 -8.04138,2.18342 -6.603521,0 -10.224806,-3.62128 -3.621286,-3.67454 -3.621286,-10.22481 0,-6.55027 3.568032,-10.17155 3.621285,-3.67454 10.01179,-3.67454 z" />
      <path
         id="path5911"
         style="font-style:normal;font-variant:normal;font-weight:600;font-stretch:normal;font-family:'Work Sans';-inkscape-font-specification:'Work Sans Semi-Bold';stroke-width:0.62407267"
         d="m 128.62116,154.72377 -4.84613,5.16566 v 6.60352 h -7.29583 v -38.28977 h 7.29583 v 23.80463 l 11.55616,-12.14196 h 8.2544 l -10.01179,10.43782 10.65084,16.18928 h -8.2544 z" />
      <path
         id="path5913"
         style="font-style:normal;font-variant:normal;font-weight:600;font-stretch:normal;font-family:'Work Sans';-inkscape-font-specification:'Work Sans Semi-Bold';stroke-width:0.62407267"
         d="m 168.03508,153.07289 q 0,1.49112 -0.21301,2.87573 h -18.85199 q 1.11834,5.64494 6.65678,5.64494 2.28993,0 3.78104,-0.85206 1.49112,-0.85207 2.07692,-2.4497 l 5.96447,2.18343 q -1.2781,3.19525 -4.31359,4.89938 -2.98224,1.65088 -7.50884,1.65088 -6.60353,0 -10.22481,-3.62128 -3.62129,-3.67454 -3.62129,-10.22481 0,-6.55027 3.51478,-10.17155 3.51478,-3.67454 9.90528,-3.67454 6.17749,0 9.47925,3.56803 3.35501,3.56803 3.35501,10.17155 z m -12.88751,-8.36091 q -2.66271,0 -4.26034,1.54437 -1.54437,1.54438 -1.9704,4.57987 h 12.40822 q -0.42603,-2.98224 -2.02366,-4.52661 -1.59762,-1.59763 -4.15382,-1.59763 z" />
      <path
         id="path5915"
         style="font-style:normal;font-variant:normal;font-weight:600;font-stretch:normal;font-family:'Work Sans';-inkscape-font-specification:'Work Sans Semi-Bold';stroke-width:0.62407267"
         d="m 185.13051,139.33331 q 1.86389,0 2.87572,0.58579 l -0.90532,6.39051 q -1.22484,-0.79881 -3.35501,-0.79881 -2.60946,0 -4.52661,1.91715 -1.8639,1.86389 -1.8639,5.27216 v 13.79284 h -7.29582 v -26.6271 h 6.33725 l 0.47929,5.21891 q 2.18342,-5.75145 8.2544,-5.75145 z" />
    </g>
    <path
       style="color:#000000;font-style:normal;font-variant:normal;font-weight:normal;font-stretch:normal;font-size:medium;line-height:normal;font-family:sans-serif;font-variant-ligatures:normal;font-variant-position:normal;font-variant-caps:normal;font-variant-numeric:normal;font-variant-alternates:normal;font-feature-settings:normal;text-indent:0;text-align:start;text-decoration:none;text-decoration-line:none;text-decoration-style:solid;text-decoration-color:#000000;letter-spacing:normal;word-spacing:normal;text-transform:none;writing-mode:lr-tb;direction:ltr;text-orientation:mixed;dominant-baseline:auto;baseline-shift:baseline;text-anchor:start;white-space:normal;shape-padding:0;clip-rule:nonzero;display:inline;overflow:visible;visibility:visible;opacity:1;isolation:auto;mix-blend-mode:normal;color-interpolation:sRGB;color-interpolation-filters:linearRGB;solid-color:#000000;solid-opacity:1;vector-effect:none;fill:#2196f3;fill-opacity:1;fill-rule:nonzero;stroke:none;stroke-width:4.81859493;stroke-linecap:round;stroke-linejoin:round;stroke-miterlimit:4;stroke-dasharray:none;stroke-dashoffset:0;stroke-opacity:1;paint-order:markers stroke fill;color-rendering:auto;image-rendering:auto;shape-rendering:auto;text-rendering:auto;enable-background:accumulate"
       d="m -202.62322,107.83605 c -1.07699,0.0165 -2.01222,0.74577 -2.29072,1.78627 l -5.63549,21.02865 -5.6355,21.02865 c -0.63793,2.37177 2.26601,4.06596 4.01675,2.34342 l 17.17754,-16.87261 22.55328,6.20582 c 2.38425,0.65534 4.09082,-2.27668 2.34342,-4.02616 l -15.39504,-15.39504 -15.39503,-15.39315 c -0.4605,-0.46069 -1.0879,-0.71532 -1.73921,-0.70585 z"
       id="path866" />
    <path
       style="color:#000000;font-style:normal;font-variant:normal;font-weight:normal;font-stretch:normal;font-size:medium;line-height:normal;font-family:sans-serif;font-variant-ligatures:normal;font-variant-position:normal;font-variant-caps:normal;font-variant-numeric:normal;font-variant-alternates:normal;font-feature-settings:normal;text-indent:0;text-align:start;text-decoration:none;text-decoration-line:none;text-decoration-style:solid;text-decoration-color:#000000;letter-spacing:normal;word-spacing:normal;text-transform:none;writing-mode:lr-tb;direction:ltr;text-orientation:mixed;dominant-baseline:auto;baseline-shift:baseline;text-anchor:start;white-space:normal;shape-padding:0;clip-rule:nonzero;display:inline;overflow:visible;visibility:visible;opacity:1;isolation:auto;mix-blend-mode:normal;color-interpolation:sRGB;color-interpolation-filters:linearRGB;solid-color:#000000;solid-opacity:1;vector-effect:none;fill:#2196f3;fill-opacity:1;fill-rule:nonzero;stroke:none;stroke-width:5.02433348;stroke-linecap:round;stroke-linejoin:round;stroke-miterlimit:4;stroke-dasharray:none;stroke-dashoffset:0;stroke-opacity:1;paint-order:markers stroke fill;color-rendering:auto;image-rendering:auto;shape-rendering:auto;text-rendering:auto;enable-background:accumulate"
       d="m -179.45656,106.47716 a 2.512418,2.512418 0 0 0 -0.80467,4.91246 c 16.48706,5.31998 27.33619,21.01516 26.48569,38.31839 -0.85049,17.30325 -13.18529,31.85789 -30.1146,35.53539 -16.9293,3.6775 -34.19101,-4.44729 -42.14356,-19.83827 -7.95255,-15.39098 -4.59422,-34.17231 8.19986,-45.85293 a 2.512418,2.512418 0 1 0 -3.3875,-3.70937 c -14.45396,13.19604 -18.25968,34.4806 -9.27539,51.8684 8.98431,17.38777 28.5466,26.59728 47.6723,22.44267 19.12569,-4.1546 33.10454,-20.65045 34.06537,-40.19859 0.96083,-19.54814 -11.33349,-37.33647 -29.95954,-43.34666 a 2.512418,2.512418 0 0 0 -0.73796,-0.13149 z"
       id="path868" />
  </g>
</svg>
