<?xml version="1.0" encoding="UTF-8" standalone="no"?>
<svg
   xmlns:dc="http://purl.org/dc/elements/1.1/"
   xmlns:cc="http://creativecommons.org/ns#"
   xmlns:rdf="http://www.w3.org/1999/02/22-rdf-syntax-ns#"
   xmlns:svg="http://www.w3.org/2000/svg"
   xmlns="http://www.w3.org/2000/svg"
   id="svg5307"
   version="1.1"
   viewBox="0 0 211.66666 211.66666"
   height="800"
   width="800">
  <defs
     id="defs5301" />
  <metadata
     id="metadata5304">
    <rdf:RDF>
      <cc:Work
         rdf:about="">
        <dc:format>image/svg+xml</dc:format>
        <dc:type
           rdf:resource="http://purl.org/dc/dcmitype/StillImage" />
        <dc:title></dc:title>
      </cc:Work>
    </rdf:RDF>
  </metadata>
  <g
     transform="translate(235.3271,20.52367)"
     id="layer1">
    <g
       transform="matrix(2.3292928,0,0,2.3292928,422.08458,514.09786)"
       id="g5273">
      <path
         id="rect845"
         d="m -268.32091,-229.52097 h 63.04026 c 7.70929,0 13.91569,6.2064 13.91569,13.9157 v 63.04026 c 0,7.70929 -6.2064,13.91569 -13.91569,13.91569 h -63.04026 c -7.70929,0 -13.91569,-6.2064 -13.91569,-13.91569 v -63.04026 c 0,-7.7093 6.2064,-13.9157 13.91569,-13.9157 z"
         style="opacity:1;fill:#0a72c7;fill-opacity:1;stroke:none;stroke-width:5;stroke-linecap:round;stroke-linejoin:round;stroke-miterlimit:4;stroke-dasharray:none;stroke-opacity:1;paint-order:markers stroke fill" />
      <g
         id="g856"
         transform="matrix(0.66514223,0,0,0.66514223,-79.474992,-323.76788)">
        <g
           style="fill:#ffffff;fill-opacity:1"
           transform="translate(151.27455,117.06405)"
           id="g851">
          <path
             id="path847"
             d="m -397.02148,50.630859 c -1.11754,0.01711 -2.08798,0.773845 -2.37696,1.853516 l -5.84765,21.820313 -5.84766,21.820312 c -0.66194,2.46106 2.35132,4.21903 4.16797,2.431641 l 17.82422,-17.507813 23.40234,6.439453 c 2.47401,0.68001 4.24483,-2.362391 2.43164,-4.177734 L -379.24219,67.335938 -395.2168,51.363281 c -0.47783,-0.478038 -1.12885,-0.74225 -1.80468,-0.732422 z"
             style="color:#000000;font-style:normal;font-variant:normal;font-weight:normal;font-stretch:normal;font-size:medium;line-height:normal;font-family:sans-serif;font-variant-ligatures:normal;font-variant-position:normal;font-variant-caps:normal;font-variant-numeric:normal;font-variant-alternates:normal;font-feature-settings:normal;text-indent:0;text-align:start;text-decoration:none;text-decoration-line:none;text-decoration-style:solid;text-decoration-color:#000000;letter-spacing:normal;word-spacing:normal;text-transform:none;writing-mode:lr-tb;direction:ltr;text-orientation:mixed;dominant-baseline:auto;baseline-shift:baseline;text-anchor:start;white-space:normal;shape-padding:0;clip-rule:nonzero;display:inline;overflow:visible;visibility:visible;opacity:1;isolation:auto;mix-blend-mode:normal;color-interpolation:sRGB;color-interpolation-filters:linearRGB;solid-color:#000000;solid-opacity:1;vector-effect:none;fill:#ffffff;fill-opacity:1;fill-rule:nonzero;stroke:none;stroke-width:5;stroke-linecap:round;stroke-linejoin:round;stroke-miterlimit:4;stroke-dasharray:none;stroke-dashoffset:0;stroke-opacity:1;paint-order:markers stroke fill;color-rendering:auto;image-rendering:auto;shape-rendering:auto;text-rendering:auto;enable-background:accumulate" />
          <path
             id="path849"
             d="m -375.30469,50.994141 a 2.50025,2.50025 0 0 0 -0.80078,4.888671 c 16.40721,5.294218 27.2038,20.913377 26.35742,38.132813 -0.84637,17.219435 -13.12143,31.703595 -29.96875,35.363285 -16.84731,3.65968 -34.02542,-4.42575 -41.93945,-19.74219 -7.91403,-15.316447 -4.57196,-34.00681 8.16016,-45.630861 a 2.50025,2.50025 0 1 0 -3.3711,-3.691406 c -14.38396,13.132136 -18.17125,34.313611 -9.23047,51.617187 8.94079,17.30357 28.40835,26.46847 47.44141,22.33398 19.03306,-4.13448 32.94421,-20.55044 33.90039,-40.003901 0.95618,-19.453457 -11.2786,-37.155638 -29.81445,-43.136719 a 2.50025,2.50025 0 0 0 -0.73438,-0.130859 z"
             style="color:#000000;font-style:normal;font-variant:normal;font-weight:normal;font-stretch:normal;font-size:medium;line-height:normal;font-family:sans-serif;font-variant-ligatures:normal;font-variant-position:normal;font-variant-caps:normal;font-variant-numeric:normal;font-variant-alternates:normal;font-feature-settings:normal;text-indent:0;text-align:start;text-decoration:none;text-decoration-line:none;text-decoration-style:solid;text-decoration-color:#000000;letter-spacing:normal;word-spacing:normal;text-transform:none;writing-mode:lr-tb;direction:ltr;text-orientation:mixed;dominant-baseline:auto;baseline-shift:baseline;text-anchor:start;white-space:normal;shape-padding:0;clip-rule:nonzero;display:inline;overflow:visible;visibility:visible;opacity:1;isolation:auto;mix-blend-mode:normal;color-interpolation:sRGB;color-interpolation-filters:linearRGB;solid-color:#000000;solid-opacity:1;vector-effect:none;fill:#ffffff;fill-opacity:1;fill-rule:nonzero;stroke:none;stroke-width:5;stroke-linecap:round;stroke-linejoin:round;stroke-miterlimit:4;stroke-dasharray:none;stroke-dashoffset:0;stroke-opacity:1;paint-order:markers stroke fill;color-rendering:auto;image-rendering:auto;shape-rendering:auto;text-rendering:auto;enable-background:accumulate" />
        </g>
      </g>
    </g>
  </g>
</svg>
